<mxfile host="app.diagrams.net" modified="2024-08-11T14:37:05.959Z" agent="Mozilla/5.0 (Windows NT 10.0; Win64; x64) AppleWebKit/537.36 (KHTML, like Gecko) Chrome/127.0.0.0 Safari/537.36" version="24.2.1" etag="Hx7RibnYUCWuGHRrp6GQ" type="github">
  <diagram name="Page-1" id="rg3jVQ4s2vGun1SFGFmZ">
    <mxGraphModel>
      <root>
        <mxCell id="0" />
        <mxCell id="1" parent="0" />
      </root>
    </mxGraphModel>
  </diagram>
</mxfile>
